<svg width="480" height="400" viewBox="0 0 480 400" fill="none" xmlns="http://www.w3.org/2000/svg">
<rect width="400" height="400" fill="#421ED2"/>
<path d="M73.76 162.008C66.56 162.008 61.328 160.472 58.064 157.4C54.896 154.328 53.216 149.24 53.024 142.136C52.928 138.104 52.88 134.312 52.88 130.76C52.88 127.208 52.928 123.416 53.024 119.384H63.968C63.872 123.32 63.776 127.256 63.68 131.192C63.68 135.128 63.776 139.064 63.968 143C64.064 146.456 64.784 148.856 66.128 150.2C67.568 151.544 70.112 152.216 73.76 152.216C77.696 152.216 80.384 151.544 81.824 150.2C83.36 148.856 84.128 146.456 84.128 143V45.8H95.504V142.136C95.504 149.24 93.824 154.328 90.464 157.4C87.104 160.472 81.536 162.008 73.76 162.008Z" fill="#FF4945"/>
<path d="M120.872 159.672C115.688 159.672 112.008 158.648 109.832 156.6C107.72 154.488 106.568 151.032 106.376 146.232C106.248 143.608 106.152 140.408 106.088 136.632C106.024 132.856 105.992 128.984 105.992 125.016C106.056 120.984 106.184 117.368 106.376 114.168C106.568 109.304 107.72 105.848 109.832 103.8C112.008 101.752 115.688 100.728 120.872 100.728C126.12 100.728 129.8 101.784 131.912 103.896C134.024 105.944 135.176 109.368 135.368 114.168C135.496 117.112 135.592 120.472 135.656 124.248C135.72 127.96 135.72 131.736 135.656 135.576C135.656 139.416 135.56 142.968 135.368 146.232C135.176 151.032 134.024 154.488 131.912 156.6C129.8 158.648 126.12 159.672 120.872 159.672ZM120.872 153.816C123.432 153.816 125.192 153.336 126.152 152.376C127.176 151.416 127.72 149.912 127.784 147.864C127.976 142.04 128.072 136.216 128.072 130.392C128.136 124.568 128.04 118.616 127.784 112.536C127.72 110.424 127.176 108.92 126.152 108.024C125.128 107.064 123.368 106.584 120.872 106.584C118.44 106.584 116.68 107.064 115.592 108.024C114.568 108.984 114.024 110.552 113.96 112.728C113.704 117.848 113.576 123.48 113.576 129.624C113.576 135.768 113.704 141.784 113.96 147.672C114.024 149.848 114.568 151.416 115.592 152.376C116.68 153.336 118.44 153.816 120.872 153.816ZM144.807 159V101.4H152.487V106.68H154.119C155.207 104.696 156.487 103.224 157.959 102.264C159.495 101.24 161.447 100.728 163.815 100.728C167.399 100.728 170.023 101.688 171.687 103.608C173.415 105.528 174.311 108.6 174.375 112.824V159H166.791L166.695 112.248C166.631 110.2 166.151 108.728 165.255 107.832C164.423 106.936 163.015 106.488 161.031 106.488C159.175 106.488 157.447 107 155.847 108.024C154.247 108.984 153.127 110.36 152.487 112.152V159H144.807ZM193.309 159.576C186.333 159.576 182.589 155.832 182.077 148.344C182.013 147.512 181.949 146.712 181.885 145.944C181.885 145.112 181.917 144.28 181.98 143.448C182.173 140.056 183.069 137.176 184.669 134.808C186.269 132.376 189.149 130.136 193.309 128.088C194.845 127.384 196.477 126.68 198.205 125.976C199.933 125.208 201.661 124.536 203.389 123.96V112.536C203.389 110.488 202.877 109.016 201.853 108.12C200.893 107.16 199.293 106.68 197.053 106.68C195.133 106.68 193.597 107.064 192.445 107.832C191.293 108.6 190.685 110.008 190.621 112.056C190.557 113.464 190.525 115.16 190.525 117.144C190.525 119.064 190.557 120.504 190.621 121.464H183.325C183.197 120.12 183.133 118.712 183.133 117.24C183.133 115.768 183.165 114.392 183.229 113.112C183.357 108.824 184.445 105.688 186.493 103.704C188.605 101.656 192.221 100.632 197.341 100.632C202.525 100.632 206.077 101.688 207.997 103.8C209.917 105.912 210.877 109.336 210.877 114.072L210.781 159H203.197V153.72H202.141C201.309 155.576 200.253 157.016 198.973 158.04C197.693 159.064 195.805 159.576 193.309 159.576ZM195.613 153.912C199.261 153.912 201.821 152.12 203.293 148.536V130.104C201.949 130.552 200.605 131.064 199.261 131.64C197.981 132.216 196.509 133.016 194.845 134.04C192.733 135.256 191.325 136.664 190.621 138.264C189.981 139.8 189.661 141.56 189.661 143.544C189.661 144.44 189.661 145.208 189.661 145.848C189.661 146.488 189.693 147.128 189.757 147.768C189.885 149.688 190.461 151.192 191.484 152.28C192.509 153.368 193.885 153.912 195.613 153.912ZM237.196 159.672C232.012 159.672 228.364 158.744 226.252 156.888C224.204 154.968 223.18 151.704 223.18 147.096V107.352H218.572V101.4H223.372V85.08H231.34L231.052 101.4H241.036V107.352H230.764L230.86 147.96C230.86 150.264 231.276 151.832 232.108 152.664C233.004 153.432 234.732 153.816 237.292 153.816C238.252 153.816 239.084 153.816 239.788 153.816C240.492 153.752 241.292 153.656 242.188 153.528V159.192C240.652 159.512 238.988 159.672 237.196 159.672ZM249.244 159V82.2H257.02V106.68H258.556C259.644 104.696 260.892 103.224 262.3 102.264C263.708 101.24 265.692 100.728 268.252 100.728C271.836 100.728 274.46 101.688 276.124 103.608C277.788 105.528 278.652 108.6 278.716 112.824L278.812 159H271.036V112.248C270.972 110.2 270.524 108.728 269.692 107.832C268.86 106.936 267.452 106.488 265.468 106.488C261.18 106.488 258.364 108.376 257.02 112.152V159H249.244ZM296.809 159.576C289.833 159.576 286.089 155.832 285.577 148.344C285.513 147.512 285.449 146.712 285.385 145.944C285.385 145.112 285.417 144.28 285.48 143.448C285.673 140.056 286.569 137.176 288.169 134.808C289.769 132.376 292.649 130.136 296.809 128.088C298.345 127.384 299.977 126.68 301.705 125.976C303.433 125.208 305.161 124.536 306.889 123.96V112.536C306.889 110.488 306.377 109.016 305.353 108.12C304.393 107.16 302.793 106.68 300.553 106.68C298.633 106.68 297.097 107.064 295.945 107.832C294.793 108.6 294.185 110.008 294.121 112.056C294.057 113.464 294.025 115.16 294.025 117.144C294.025 119.064 294.057 120.504 294.121 121.464H286.825C286.697 120.12 286.633 118.712 286.633 117.24C286.633 115.768 286.665 114.392 286.729 113.112C286.857 108.824 287.945 105.688 289.993 103.704C292.105 101.656 295.721 100.632 300.841 100.632C306.025 100.632 309.577 101.688 311.497 103.8C313.417 105.912 314.377 109.336 314.377 114.072L314.281 159H306.697V153.72H305.641C304.809 155.576 303.753 157.016 302.473 158.04C301.193 159.064 299.305 159.576 296.809 159.576ZM299.113 153.912C302.761 153.912 305.321 152.12 306.793 148.536V130.104C305.449 130.552 304.105 131.064 302.761 131.64C301.481 132.216 300.009 133.016 298.345 134.04C296.233 135.256 294.825 136.664 294.121 138.264C293.481 139.8 293.161 141.56 293.161 143.544C293.161 144.44 293.161 145.208 293.161 145.848C293.161 146.488 293.193 147.128 293.257 147.768C293.385 149.688 293.961 151.192 294.984 152.28C296.009 153.368 297.385 153.912 299.113 153.912ZM324.619 159V101.4H332.299V106.68H333.931C335.019 104.696 336.299 103.224 337.771 102.264C339.307 101.24 341.259 100.728 343.627 100.728C347.211 100.728 349.835 101.688 351.499 103.608C353.227 105.528 354.123 108.6 354.187 112.824V159H346.603L346.507 112.248C346.443 110.2 345.963 108.728 345.067 107.832C344.235 106.936 342.827 106.488 340.843 106.488C338.987 106.488 337.259 107 335.659 108.024C334.059 108.984 332.939 110.36 332.299 112.152V159H324.619Z" fill="white"/>
<path d="M82.248 334.008C74.472 334.008 68.856 332.472 65.4 329.4C61.944 326.328 60.12 321.24 59.928 314.136C59.832 310.104 59.784 306.36 59.784 302.904C59.784 299.448 59.88 295.608 60.072 291.384H71.016C70.824 295.608 70.728 299.688 70.728 303.624C70.728 307.56 70.824 311.544 71.016 315.576C71.208 318.744 72.12 321 73.752 322.344C75.384 323.592 78.168 324.216 82.104 324.216C85.848 324.216 88.488 323.592 90.024 322.344C91.656 321 92.616 318.744 92.904 315.576C93.096 312.408 93.144 308.952 93.048 305.208C93.048 301.368 93 297.912 92.904 294.84C92.712 290.904 91.896 288.024 90.456 286.2C89.112 284.28 86.76 282.888 83.4 282.024L75.336 280.152C69.48 278.712 65.448 276.216 63.24 272.664C61.032 269.112 59.832 263.736 59.64 256.536C59.64 253.368 59.64 250.104 59.64 246.744C59.64 243.384 59.688 239.976 59.784 236.52C59.976 229.512 61.8 224.472 65.256 221.4C68.712 218.328 74.328 216.792 82.104 216.792C89.592 216.792 95.016 218.328 98.376 221.4C101.736 224.472 103.56 229.56 103.848 236.664C103.848 239.64 103.848 242.952 103.848 246.6C103.848 250.152 103.8 253.848 103.704 257.688H92.616C92.712 253.368 92.76 249.432 92.76 245.88C92.856 242.232 92.808 238.68 92.616 235.224C92.52 232.056 91.656 229.848 90.024 228.6C88.488 227.256 85.8 226.584 81.96 226.584C78.216 226.584 75.528 227.256 73.896 228.6C72.264 229.848 71.352 232.056 71.16 235.224C70.968 238.872 70.872 242.424 70.872 245.88C70.968 249.24 71.064 252.792 71.16 256.536C71.256 260.664 71.832 263.736 72.888 265.752C73.944 267.672 75.816 268.92 78.504 269.496L85.992 271.224C92.712 272.76 97.368 275.304 99.96 278.856C102.648 282.408 104.088 287.736 104.28 294.84C104.376 297.816 104.424 301.032 104.424 304.488C104.424 307.944 104.376 311.16 104.28 314.136C103.992 321.24 102.12 326.328 98.664 329.4C95.304 332.472 89.832 334.008 82.248 334.008Z" fill="#FF4945"/>
<path d="M136.016 311.84H143.6C143.664 312.928 143.696 314.336 143.696 316.064C143.76 317.792 143.76 319.168 143.696 320.192C143.504 324.672 142.352 327.904 140.24 329.888C138.192 331.808 134.704 332.768 129.776 332.768C124.656 332.768 121.008 331.776 118.832 329.792C116.656 327.808 115.472 324.608 115.28 320.192C115.152 317.12 115.056 313.6 114.992 309.632C114.992 305.6 114.992 301.536 114.992 297.44C115.056 293.344 115.152 289.632 115.28 286.304C115.472 281.76 116.688 278.528 118.928 276.608C121.232 274.624 124.816 273.632 129.68 273.632C134.544 273.632 138.032 274.624 140.144 276.608C142.32 278.592 143.504 281.76 143.696 286.112C143.76 286.816 143.792 288.192 143.792 290.24C143.856 292.288 143.856 294.624 143.792 297.248C143.792 299.872 143.728 302.368 143.6 304.736H122.768C122.768 307.36 122.768 310.048 122.768 312.8C122.832 315.488 122.896 318.208 122.96 320.96C123.024 323.136 123.568 324.64 124.592 325.472C125.68 326.304 127.344 326.72 129.584 326.72C131.888 326.72 133.52 326.304 134.48 325.472C135.44 324.64 135.984 323.136 136.112 320.96C136.176 320 136.208 318.688 136.208 317.024C136.208 315.36 136.144 313.632 136.016 311.84ZM129.68 279.68C127.248 279.68 125.52 280.16 124.496 281.12C123.536 282.016 123.024 283.424 122.96 285.344C122.896 287.584 122.832 289.824 122.768 292.064C122.768 294.24 122.768 296.512 122.768 298.88H136.112C136.176 296.064 136.208 293.344 136.208 290.72C136.208 288.096 136.176 286.304 136.112 285.344C135.984 283.232 135.408 281.76 134.384 280.928C133.36 280.096 131.792 279.68 129.68 279.68ZM148.876 332L157.132 302.336L149.068 274.4H156.748L159.916 286.784L162.7 299.072H164.716L167.596 286.784L170.764 274.4H178.444L170.284 302.432L178.636 332H170.956L167.308 316.928L164.62 305.12H162.796L160.299 316.928L156.556 332H148.876ZM202.884 332.672C197.7 332.672 194.052 331.744 191.94 329.888C189.892 327.968 188.868 324.704 188.868 320.096V280.352H184.26V274.4H189.06V258.08H197.028L196.74 274.4H206.724V280.352H196.452L196.548 320.96C196.548 323.264 196.964 324.832 197.796 325.664C198.692 326.432 200.42 326.816 202.98 326.816C203.94 326.816 204.772 326.816 205.476 326.816C206.18 326.752 206.98 326.656 207.876 326.528V332.192C206.34 332.512 204.676 332.672 202.884 332.672ZM228.778 332.672C223.594 332.672 219.914 331.648 217.738 329.6C215.626 327.488 214.474 324.032 214.282 319.232C214.154 316.608 214.058 313.408 213.994 309.632C213.93 305.856 213.898 301.984 213.898 298.016C213.962 293.984 214.09 290.368 214.282 287.168C214.474 282.304 215.626 278.848 217.738 276.8C219.914 274.752 223.594 273.728 228.778 273.728C234.026 273.728 237.706 274.784 239.818 276.896C241.93 278.944 243.082 282.368 243.274 287.168C243.402 290.112 243.498 293.472 243.562 297.248C243.626 300.96 243.626 304.736 243.562 308.576C243.562 312.416 243.466 315.968 243.274 319.232C243.082 324.032 241.93 327.488 239.818 329.6C237.706 331.648 234.026 332.672 228.778 332.672ZM228.778 326.816C231.338 326.816 233.098 326.336 234.058 325.376C235.082 324.416 235.626 322.912 235.69 320.864C235.882 315.04 235.978 309.216 235.978 303.392C236.042 297.568 235.946 291.616 235.69 285.536C235.626 283.424 235.082 281.92 234.058 281.024C233.034 280.064 231.274 279.584 228.778 279.584C226.346 279.584 224.586 280.064 223.498 281.024C222.474 281.984 221.93 283.552 221.866 285.728C221.61 290.848 221.482 296.48 221.482 302.624C221.482 308.768 221.61 314.784 221.866 320.672C221.93 322.848 222.474 324.416 223.498 325.376C224.586 326.336 226.346 326.816 228.778 326.816ZM252.713 332V274.4H260.393V279.68H262.025C263.113 277.696 264.393 276.224 265.865 275.264C267.401 274.24 269.353 273.728 271.721 273.728C275.305 273.728 277.929 274.688 279.593 276.608C281.321 278.528 282.217 281.6 282.281 285.824V332H274.697L274.601 285.248C274.537 283.2 274.057 281.728 273.161 280.832C272.329 279.936 270.921 279.488 268.937 279.488C267.081 279.488 265.353 280 263.753 281.024C262.153 281.984 261.033 283.36 260.393 285.152V332H252.713Z" fill="white"/>
</svg>
