<svg width="25" height="25" viewBox="0 0 25 25" fill="none" xmlns="http://www.w3.org/2000/svg">
<path d="M12.5001 0C5.59739 0 0 5.73799 0 12.8165C0 18.4791 3.58166 23.2833 8.54833 24.978C9.17305 25.0966 9.4024 24.6999 9.4024 24.3614C9.4024 24.0558 9.39081 23.0462 9.38543 21.9753C5.90789 22.7506 5.17408 20.4631 5.17408 20.4631C4.60546 18.9817 3.78617 18.5878 3.78617 18.5878C2.65204 17.7923 3.87166 17.8087 3.87166 17.8087C5.12689 17.8991 5.78783 19.1294 5.78783 19.1294C6.90271 21.0888 8.71207 20.5223 9.42538 20.1948C9.53757 19.3665 9.86152 18.8011 10.219 18.481C7.44256 18.1569 4.52391 17.058 4.52391 12.1471C4.52391 10.7478 5.01221 9.6045 5.81184 8.70695C5.68205 8.38414 5.25419 7.08059 5.93293 5.31522C5.93293 5.31522 6.98261 4.97076 9.37135 6.62896C10.3685 6.34499 11.4378 6.20258 12.5001 6.19769C13.5624 6.20258 14.6326 6.34499 15.6315 6.62896C18.0174 4.97076 19.0656 5.31522 19.0656 5.31522C19.746 7.08059 19.3179 8.38414 19.1882 8.70695C19.9896 9.6045 20.4746 10.7478 20.4746 12.1471C20.4746 17.0697 17.5504 18.1535 14.7669 18.4708C15.2153 18.8686 15.6148 19.6485 15.6148 20.8443C15.6148 22.5591 15.6003 23.9393 15.6003 24.3614C15.6003 24.7025 15.8253 25.1021 16.4589 24.9763C21.4229 23.2797 25 18.4772 25 12.8165C25 5.73799 19.4034 0 12.5001 0Z" fill="white"/>
<path d="M4.77128 18.3137C4.7438 18.3767 4.64628 18.3956 4.55744 18.3524C4.46694 18.311 4.41612 18.225 4.44545 18.1618C4.47231 18.0968 4.57004 18.0788 4.66033 18.1223C4.75103 18.1637 4.80268 18.2504 4.77128 18.3137Z" fill="#161514"/>
<path d="M5.27664 18.887C5.21714 18.9431 5.10082 18.917 5.02189 18.8283C4.94028 18.7399 4.92499 18.6216 4.98532 18.5646C5.04668 18.5085 5.15949 18.5348 5.24131 18.6232C5.32292 18.7128 5.33883 18.8302 5.27664 18.887Z" fill="#161514"/>
<path d="M5.76859 19.6179C5.69214 19.6719 5.56714 19.6212 5.48987 19.5084C5.41342 19.3955 5.41342 19.2602 5.49152 19.206C5.569 19.1518 5.69214 19.2005 5.77045 19.3125C5.84669 19.4273 5.84669 19.5626 5.76859 19.6179Z" fill="#161514"/>
<path d="M6.44248 20.3239C6.37409 20.4006 6.22843 20.38 6.12182 20.2754C6.01273 20.173 5.98236 20.0278 6.05095 19.9511C6.12017 19.8742 6.26666 19.8959 6.37409 19.9997C6.48236 20.1018 6.51542 20.2481 6.44248 20.3239Z" fill="#161514"/>
<path d="M7.37225 20.7339C7.34208 20.8333 7.20179 20.8785 7.06047 20.8362C6.91935 20.7927 6.827 20.6763 6.85551 20.5759C6.88485 20.4758 7.02576 20.4288 7.16812 20.4739C7.30902 20.5172 7.40159 20.6328 7.37225 20.7339Z" fill="#161514"/>
<path d="M8.39333 20.81C8.39685 20.9146 8.27701 21.0014 8.12866 21.0033C7.97949 21.0067 7.85883 20.922 7.85718 20.819C7.85718 20.7133 7.97433 20.6274 8.1235 20.6249C8.27185 20.6219 8.39333 20.706 8.39333 20.81Z" fill="#161514"/>
<path d="M9.34361 20.6454C9.36138 20.7476 9.25828 20.8524 9.11097 20.8804C8.96613 20.9073 8.83204 20.8442 8.81365 20.7429C8.79568 20.6383 8.90063 20.5334 9.04526 20.5063C9.19278 20.4803 9.32481 20.5416 9.34361 20.6454Z" fill="#161514"/>
</svg>
