<svg width="222" height="115" viewBox="0 0 222 115" fill="none" xmlns="http://www.w3.org/2000/svg">
<rect x="0.0128174" y="0.997314" width="200" height="100" fill="#421ED2"/>
<path d="M110.87 87.97C110.774 89.05 110.318 90.088 109.502 91.084C108.698 92.068 107.558 92.872 106.082 93.496C104.618 94.12 102.848 94.432 100.772 94.432C98.66 94.432 96.818 94.012 95.246 93.172C93.674 92.32 92.456 91.15 91.592 89.662C90.728 88.162 90.296 86.434 90.296 84.478C90.296 82.498 90.734 80.764 91.61 79.276C92.498 77.776 93.728 76.612 95.3 75.784C96.884 74.944 98.714 74.524 100.79 74.524C102.914 74.524 104.75 74.95 106.298 75.802C107.846 76.642 109.04 77.824 109.88 79.348C110.72 80.86 111.14 82.624 111.14 84.64C111.14 85.264 111.116 85.756 111.068 86.116H95.948C96.2 87.412 96.746 88.42 97.586 89.14C98.426 89.848 99.566 90.202 101.006 90.202C102.506 90.202 103.586 89.962 104.246 89.482C104.918 88.99 105.29 88.486 105.362 87.97H110.87ZM100.862 78.7C99.578 78.7 98.516 79.024 97.676 79.672C96.848 80.32 96.29 81.238 96.002 82.426H105.434C105.35 81.478 104.936 80.62 104.192 79.852C103.46 79.084 102.35 78.7 100.862 78.7ZM125.854 94L121.786 88.06L117.466 94H111.508L118.852 84.694L111.832 74.884H117.898L121.93 80.86L125.926 74.884H131.884L125.044 84.226L131.956 94H125.854ZM144.027 94.396C143.295 94.396 142.539 94.33 141.759 94.198C140.991 94.078 140.277 93.832 139.617 93.46C138.957 93.076 138.417 92.518 137.997 91.786C137.589 91.054 137.385 90.088 137.385 88.888V79.204H132.975V74.884H134.217C135.189 74.884 135.897 74.818 136.341 74.686C136.797 74.554 137.085 74.218 137.205 73.678C137.325 73.126 137.385 72.232 137.385 70.996V68.584H142.983V74.884H148.545V79.204H142.983V87.304C142.983 88.132 143.079 88.804 143.271 89.32C143.475 89.836 143.973 90.094 144.765 90.094C145.161 90.094 145.533 90.058 145.881 89.986C146.241 89.914 146.511 89.842 146.691 89.77V93.964C146.439 94.072 146.085 94.168 145.629 94.252C145.173 94.348 144.639 94.396 144.027 94.396ZM161.047 94.414C158.983 94.414 157.165 93.988 155.593 93.136C154.021 92.284 152.791 91.114 151.903 89.626C151.027 88.126 150.589 86.398 150.589 84.442C150.589 82.498 151.027 80.782 151.903 79.294C152.791 77.794 154.021 76.63 155.593 75.802C157.165 74.962 158.983 74.542 161.047 74.542C163.111 74.542 164.929 74.962 166.501 75.802C168.073 76.63 169.297 77.794 170.173 79.294C171.061 80.782 171.505 82.498 171.505 84.442C171.505 86.398 171.061 88.126 170.173 89.626C169.297 91.114 168.073 92.284 166.501 93.136C164.929 93.988 163.111 94.414 161.047 94.414ZM161.047 89.986C162.499 89.986 163.663 89.482 164.539 88.474C165.415 87.466 165.853 86.122 165.853 84.442C165.853 82.762 165.415 81.43 164.539 80.446C163.663 79.462 162.499 78.97 161.047 78.97C159.595 78.97 158.431 79.462 157.555 80.446C156.679 81.43 156.241 82.762 156.241 84.442C156.241 86.122 156.679 87.466 157.555 88.474C158.431 89.482 159.595 89.986 161.047 89.986ZM174.991 94V74.884H180.571V77.818C181.303 76.786 182.239 75.982 183.379 75.406C184.519 74.818 185.767 74.524 187.123 74.524C189.475 74.524 191.209 75.214 192.325 76.594C193.453 77.974 194.017 79.786 194.017 82.03V94H188.455V83.632C188.455 82.84 188.353 82.12 188.149 81.472C187.945 80.812 187.573 80.284 187.033 79.888C186.505 79.492 185.749 79.294 184.765 79.294C183.469 79.294 182.443 79.732 181.687 80.608C180.943 81.472 180.571 82.6 180.571 83.992V94H174.991Z" fill="white"/>
<path d="M69.904 98.768C66.4907 98.768 63.4827 98.224 60.88 97.136C58.2987 96.048 56.272 94.4267 54.8 92.272C53.3493 90.096 52.624 87.3973 52.624 84.176V82.288H62.576V83.984C62.576 88.528 65.0293 90.8 69.936 90.8C72.3893 90.8 74.2773 90.4053 75.6 89.616C76.9227 88.8267 77.584 87.5467 77.584 85.776C77.584 84.5173 77.0933 83.408 76.112 82.448C75.1307 81.488 73.776 80.6347 72.048 79.888C70.3413 79.12 68.4107 78.4053 66.256 77.744C63.888 76.9973 61.6907 76.016 59.664 74.8C57.6373 73.584 56.0053 72.0373 54.768 70.16C53.552 68.2827 52.944 65.968 52.944 63.216C52.944 60.4427 53.68 58.0853 55.152 56.144C56.624 54.1813 58.6293 52.688 61.168 51.664C63.7067 50.6187 66.576 50.096 69.776 50.096C73.1253 50.096 76.08 50.6187 78.64 51.664C81.2213 52.688 83.2373 54.2347 84.688 56.304C86.16 58.352 86.896 60.912 86.896 63.984V65.904H76.976V64.432C76.976 62.3627 76.4 60.7733 75.248 59.664C74.1173 58.5547 72.336 58 69.904 58C67.5573 58 65.7333 58.4267 64.432 59.28C63.152 60.1333 62.512 61.4453 62.512 63.216C62.512 64.496 62.9707 65.584 63.888 66.48C64.8267 67.376 66.1067 68.176 67.728 68.88C69.3493 69.584 71.1947 70.288 73.264 70.992C76.08 71.9733 78.5333 73.0613 80.624 74.256C82.736 75.4293 84.368 76.912 85.52 78.704C86.672 80.4747 87.248 82.736 87.248 85.488C87.248 88.3253 86.512 90.736 85.04 92.72C83.5893 94.6827 81.5627 96.1867 78.96 97.232C76.3573 98.256 73.3387 98.768 69.904 98.768Z" fill="#FF4945"/>
<path d="M53.754 46.414C51.69 46.414 49.872 45.988 48.3 45.136C46.728 44.284 45.498 43.114 44.61 41.626C43.734 40.126 43.296 38.398 43.296 36.442C43.296 34.498 43.734 32.782 44.61 31.294C45.498 29.794 46.728 28.63 48.3 27.802C49.872 26.962 51.69 26.542 53.754 26.542C55.818 26.542 57.636 26.962 59.208 27.802C60.78 28.63 62.004 29.794 62.88 31.294C63.768 32.782 64.212 34.498 64.212 36.442C64.212 38.398 63.768 40.126 62.88 41.626C62.004 43.114 60.78 44.284 59.208 45.136C57.636 45.988 55.818 46.414 53.754 46.414ZM53.754 41.986C55.206 41.986 56.37 41.482 57.246 40.474C58.122 39.466 58.56 38.122 58.56 36.442C58.56 34.762 58.122 33.43 57.246 32.446C56.37 31.462 55.206 30.97 53.754 30.97C52.302 30.97 51.138 31.462 50.262 32.446C49.386 33.43 48.948 34.762 48.948 36.442C48.948 38.122 49.386 39.466 50.262 40.474C51.138 41.482 52.302 41.986 53.754 41.986ZM67.6975 46V26.884H73.2775V29.818C74.0095 28.786 74.9455 27.982 76.0855 27.406C77.2255 26.818 78.4735 26.524 79.8295 26.524C82.1815 26.524 83.9155 27.214 85.0315 28.594C86.1595 29.974 86.7235 31.786 86.7235 34.03V46H81.1615V35.632C81.1615 34.84 81.0595 34.12 80.8555 33.472C80.6515 32.812 80.2795 32.284 79.7395 31.888C79.2115 31.492 78.4555 31.294 77.4715 31.294C76.1755 31.294 75.1495 31.732 74.3935 32.608C73.6495 33.472 73.2775 34.6 73.2775 35.992V46H67.6975ZM97.3807 46.396C95.2807 46.396 93.5587 45.904 92.2147 44.92C90.8707 43.936 90.1987 42.544 90.1987 40.744C90.1987 39.388 90.5707 38.284 91.3147 37.432C92.0587 36.58 93.0427 35.932 94.2667 35.488C95.5027 35.032 96.8407 34.732 98.2807 34.588C100.369 34.396 101.815 34.216 102.619 34.048C103.423 33.868 103.825 33.568 103.825 33.148V33.112C103.825 32.404 103.483 31.846 102.799 31.438C102.127 31.03 101.185 30.826 99.9727 30.826C97.3327 30.826 96.0127 31.762 96.0127 33.634H90.5227C90.5227 32.11 90.9367 30.82 91.7647 29.764C92.6047 28.696 93.7387 27.892 95.1667 27.352C96.5947 26.8 98.2087 26.524 100.009 26.524C101.689 26.524 103.243 26.782 104.671 27.298C106.099 27.802 107.245 28.57 108.109 29.602C108.985 30.622 109.423 31.912 109.423 33.472V41.734C109.423 42.226 109.435 42.7 109.459 43.156C109.495 43.612 109.567 44.02 109.675 44.38C109.795 44.8 109.945 45.148 110.125 45.424C110.305 45.7 110.455 45.892 110.575 46H105.085C105.001 45.904 104.869 45.73 104.689 45.478C104.521 45.214 104.377 44.908 104.257 44.56C104.185 44.356 104.125 44.158 104.077 43.966C103.357 44.734 102.409 45.334 101.233 45.766C100.057 46.186 98.7727 46.396 97.3807 46.396ZM98.8747 42.22C99.7387 42.22 100.555 42.064 101.323 41.752C102.091 41.428 102.715 40.924 103.195 40.24C103.675 39.556 103.915 38.662 103.915 37.558V37.396C103.231 37.576 102.505 37.726 101.737 37.846C100.969 37.954 100.207 38.05 99.4507 38.134C98.2267 38.254 97.3087 38.464 96.6967 38.764C96.0967 39.052 95.7967 39.544 95.7967 40.24C95.7967 41.56 96.8227 42.22 98.8747 42.22ZM122.48 46.396C121.748 46.396 120.992 46.33 120.212 46.198C119.444 46.078 118.73 45.832 118.07 45.46C117.41 45.076 116.87 44.518 116.45 43.786C116.042 43.054 115.838 42.088 115.838 40.888V31.204H111.428V26.884H112.67C113.642 26.884 114.35 26.818 114.794 26.686C115.25 26.554 115.538 26.218 115.658 25.678C115.778 25.126 115.838 24.232 115.838 22.996V20.584H121.436V26.884H126.998V31.204H121.436V39.304C121.436 40.132 121.532 40.804 121.724 41.32C121.928 41.836 122.426 42.094 123.218 42.094C123.614 42.094 123.986 42.058 124.334 41.986C124.694 41.914 124.964 41.842 125.144 41.77V45.964C124.892 46.072 124.538 46.168 124.082 46.252C123.626 46.348 123.092 46.396 122.48 46.396ZM130.381 46V17.866H135.961V29.476C136.669 28.552 137.575 27.832 138.679 27.316C139.783 26.788 141.019 26.524 142.387 26.524C144.727 26.524 146.485 27.214 147.661 28.594C148.837 29.962 149.425 31.87 149.425 34.318V46H143.845V35.884C143.845 34.42 143.581 33.292 143.053 32.5C142.525 31.696 141.559 31.294 140.155 31.294C138.775 31.294 137.731 31.696 137.023 32.5C136.315 33.304 135.961 34.372 135.961 35.704V46H130.381ZM160.064 46.396C157.964 46.396 156.242 45.904 154.898 44.92C153.554 43.936 152.882 42.544 152.882 40.744C152.882 39.388 153.254 38.284 153.998 37.432C154.742 36.58 155.726 35.932 156.95 35.488C158.186 35.032 159.524 34.732 160.964 34.588C163.052 34.396 164.498 34.216 165.302 34.048C166.106 33.868 166.508 33.568 166.508 33.148V33.112C166.508 32.404 166.166 31.846 165.482 31.438C164.81 31.03 163.868 30.826 162.656 30.826C160.016 30.826 158.696 31.762 158.696 33.634H153.206C153.206 32.11 153.62 30.82 154.448 29.764C155.288 28.696 156.422 27.892 157.85 27.352C159.278 26.8 160.892 26.524 162.692 26.524C164.372 26.524 165.926 26.782 167.354 27.298C168.782 27.802 169.928 28.57 170.792 29.602C171.668 30.622 172.106 31.912 172.106 33.472V41.734C172.106 42.226 172.118 42.7 172.142 43.156C172.178 43.612 172.25 44.02 172.358 44.38C172.478 44.8 172.628 45.148 172.808 45.424C172.988 45.7 173.138 45.892 173.258 46H167.768C167.684 45.904 167.552 45.73 167.372 45.478C167.204 45.214 167.06 44.908 166.94 44.56C166.868 44.356 166.808 44.158 166.76 43.966C166.04 44.734 165.092 45.334 163.916 45.766C162.74 46.186 161.456 46.396 160.064 46.396ZM161.558 42.22C162.422 42.22 163.238 42.064 164.006 41.752C164.774 41.428 165.398 40.924 165.878 40.24C166.358 39.556 166.598 38.662 166.598 37.558V37.396C165.914 37.576 165.188 37.726 164.42 37.846C163.652 37.954 162.89 38.05 162.134 38.134C160.91 38.254 159.992 38.464 159.38 38.764C158.78 39.052 158.48 39.544 158.48 40.24C158.48 41.56 159.506 42.22 161.558 42.22ZM176.19 46V26.884H181.77V29.818C182.502 28.786 183.438 27.982 184.578 27.406C185.718 26.818 186.966 26.524 188.322 26.524C190.674 26.524 192.408 27.214 193.524 28.594C194.652 29.974 195.216 31.786 195.216 34.03V46H189.654V35.632C189.654 34.84 189.552 34.12 189.348 33.472C189.144 32.812 188.772 32.284 188.232 31.888C187.704 31.492 186.948 31.294 185.964 31.294C184.668 31.294 183.642 31.732 182.886 32.608C182.142 33.472 181.77 34.6 181.77 35.992V46H176.19Z" fill="white"/>
<path d="M23.664 52.768C19.8027 52.768 16.7093 52.096 14.384 50.752C12.08 49.3867 10.4053 47.4987 9.36 45.088C8.336 42.656 7.824 39.84 7.824 36.64V34.432H17.68V35.744C17.68 37.3013 17.84 38.7733 18.16 40.16C18.5013 41.5467 19.0987 42.6667 19.952 43.52C20.8267 44.3733 22.064 44.8 23.664 44.8C25.264 44.8 26.48 44.3733 27.312 43.52C28.1653 42.6453 28.7413 41.472 29.04 40C29.3387 38.5067 29.488 36.864 29.488 35.072V4.8H39.408V36.48C39.408 39.4453 38.9493 42.1653 38.032 44.64C37.1147 47.0933 35.5147 49.0667 33.232 50.56C30.9493 52.032 27.76 52.768 23.664 52.768Z" fill="#FF4945"/>
</svg>
