<svg width="25" height="25" viewBox="0 0 25 25" fill="none" xmlns="http://www.w3.org/2000/svg">
<path fill-rule="evenodd" clip-rule="evenodd" d="M12.5 25C19.4036 25 25 19.4036 25 12.5C25 5.59644 19.4036 0 12.5 0C5.59644 0 0 5.59644 0 12.5C0 19.4036 5.59644 25 12.5 25Z" fill="white"/>
<path d="M6.14309 8.49162C6.1638 8.28224 6.08578 8.07528 5.93301 7.93435L4.37683 6.01575V5.72916H9.20876L12.9436 14.1121L16.2271 5.72916H20.8334V6.01575L19.5029 7.32136C19.3882 7.41084 19.3313 7.55792 19.355 7.70349V17.2965C19.3313 17.4421 19.3882 17.5891 19.5029 17.6786L20.8023 18.9842V19.2708H14.2663V18.9842L15.6124 17.6468C15.7447 17.5114 15.7447 17.4716 15.7447 17.2646V9.51063L12.0021 19.239H11.4963L7.13905 9.51063V16.0307C7.10272 16.3048 7.19167 16.5808 7.38026 16.779L9.13096 18.9524V19.239H4.16675V18.9524L5.91745 16.779C6.10466 16.5805 6.18843 16.3027 6.14309 16.0307V8.49162Z" fill="black"/>
</svg>
