<svg width="20" height="20" viewBox="0 0 20 20" fill="none" xmlns="http://www.w3.org/2000/svg">
<path d="M9.71114 5.3203L9.75452 6.18541L9.03195 6.07947C6.40187 5.67343 4.10416 4.29635 2.15318 1.98364L1.19947 0.836136L0.953794 1.68353C0.433511 3.57259 0.765876 5.56749 1.84974 6.90916C2.42778 7.65072 2.29771 7.75666 1.30062 7.31531C0.953794 7.17406 0.650267 7.06812 0.62143 7.12103C0.520283 7.24468 0.867109 8.85114 1.14163 9.48676C1.51738 10.3695 2.28325 11.2345 3.12144 11.7465L3.82955 12.1525L2.99137 12.1702C2.18211 12.1702 2.15318 12.1878 2.23995 12.5585C2.52893 13.706 3.67056 14.9243 4.94225 15.4538L5.83829 15.8246L5.05786 16.3895C3.90178 17.2017 2.54339 17.6606 1.18501 17.6959C0.534659 17.7136 0 17.7842 0 17.8372C0 18.0137 1.76306 19.0024 2.78907 19.3907C5.86712 20.5382 9.52331 20.044 12.269 18.0844C14.2199 16.6897 16.1708 13.9179 17.0812 11.2345C17.5725 9.80447 18.0639 7.19166 18.0639 5.93822C18.0639 5.12614 18.1072 5.0202 18.9165 4.04926C19.3934 3.48426 19.8413 2.86634 19.9281 2.68989C20.0725 2.35447 20.0582 2.35447 19.3211 2.65457C18.0928 3.18416 17.9194 3.11353 18.5263 2.31916C18.9743 1.75416 19.509 0.730198 19.509 0.430094C19.509 0.377177 19.2922 0.465407 19.0465 0.624261C18.7865 0.800823 18.2084 1.06561 17.7748 1.22457L16.9945 1.52468L16.2864 0.942074C15.8963 0.624261 15.347 0.27124 15.0581 0.165302C14.321 -0.0818855 13.1939 -0.0465725 12.5291 0.235928C10.7227 1.03041 9.58107 3.07822 9.71114 5.3203Z" fill="white"/>
</svg>
